<?xml version="1.0" encoding="UTF-8" standalone="no"?>
<!DOCTYPE svg PUBLIC "-//W3C//DTD SVG 1.1//EN"
 "http://www.w3.org/Graphics/SVG/1.1/DTD/svg11.dtd">
<!-- Generated by graphviz version 5.0.0 (20220707.1540)
 -->
<!-- Title: dependencies Pages: 1 -->
<svg width="480pt" height="247pt"
 viewBox="0.00 0.00 480.00 246.80" xmlns="http://www.w3.org/2000/svg" xmlns:xlink="http://www.w3.org/1999/xlink">
<g id="graph0" class="graph" transform="scale(1 1) rotate(0) translate(4 242.8)">
<title>dependencies</title>
<polygon fill="white" stroke="transparent" points="-4,4 -4,-242.8 476,-242.8 476,4 -4,4"/>
<text text-anchor="middle" x="236" y="-8.2" font-family="sans-serif" font-size="14.00">dependencies</text>
<g id="clust1" class="cluster">
<title>cluster_AuthModule</title>
<polygon fill="none" stroke="black" stroke-dasharray="1,5" points="8,-32.8 8,-230.8 464,-230.8 464,-32.8 8,-32.8"/>
</g>
<g id="clust5" class="cluster">
<title>cluster_AuthModule_imports</title>
<polygon fill="none" stroke="black" points="308,-40.8 308,-92.8 456,-92.8 456,-40.8 308,-40.8"/>
</g>
<g id="clust2" class="cluster">
<title>cluster_AuthModule_declarations</title>
<polygon fill="none" stroke="black" points="16,-40.8 16,-92.8 300,-92.8 300,-40.8 16,-40.8"/>
</g>
<g id="clust6" class="cluster">
<title>cluster_AuthModule_exports</title>
<polygon fill="none" stroke="black" points="87,-170.8 87,-222.8 378,-222.8 378,-170.8 87,-170.8"/>
</g>
<!-- Login3Component -->
<g id="node1" class="node">
<title>Login3Component</title>
<polygon fill="#ffffb3" stroke="black" points="291.77,-84.8 170.23,-84.8 170.23,-48.8 291.77,-48.8 291.77,-84.8"/>
<text text-anchor="middle" x="231" y="-62.6" font-family="Times,serif" font-size="14.00">Login3Component</text>
</g>
<!-- AuthModule -->
<g id="node3" class="node">
<title>AuthModule</title>
<polygon fill="#8dd3c7" stroke="black" points="274.55,-149.8 271.55,-153.8 250.55,-153.8 247.55,-149.8 187.45,-149.8 187.45,-113.8 274.55,-113.8 274.55,-149.8"/>
<text text-anchor="middle" x="231" y="-127.6" font-family="Times,serif" font-size="14.00">AuthModule</text>
</g>
<!-- Login3Component&#45;&gt;AuthModule -->
<g id="edge1" class="edge">
<title>Login3Component&#45;&gt;AuthModule</title>
<path fill="none" stroke="black" d="M231,-84.91C231,-84.91 231,-103.79 231,-103.79"/>
<polygon fill="black" stroke="black" points="227.5,-103.79 231,-113.79 234.5,-103.79 227.5,-103.79"/>
</g>
<!-- RegisterComponent -->
<g id="node2" class="node">
<title>RegisterComponent</title>
<polygon fill="#ffffb3" stroke="black" points="151.99,-84.8 24.01,-84.8 24.01,-48.8 151.99,-48.8 151.99,-84.8"/>
<text text-anchor="middle" x="88" y="-62.6" font-family="Times,serif" font-size="14.00">RegisterComponent</text>
</g>
<!-- RegisterComponent&#45;&gt;AuthModule -->
<g id="edge2" class="edge">
<title>RegisterComponent&#45;&gt;AuthModule</title>
<path fill="none" stroke="black" d="M123.62,-84.91C123.62,-104.14 123.62,-131.8 123.62,-131.8 123.62,-131.8 177.33,-131.8 177.33,-131.8"/>
<polygon fill="black" stroke="black" points="177.33,-135.3 187.33,-131.8 177.33,-128.3 177.33,-135.3"/>
</g>
<!-- Login3Component  -->
<g id="node5" class="node">
<title>Login3Component </title>
<polygon fill="#fb8072" stroke="black" points="369.77,-214.8 244.23,-214.8 244.23,-178.8 369.77,-178.8 369.77,-214.8"/>
<text text-anchor="middle" x="307" y="-192.6" font-family="Times,serif" font-size="14.00">Login3Component </text>
</g>
<!-- AuthModule&#45;&gt;Login3Component  -->
<g id="edge4" class="edge">
<title>AuthModule&#45;&gt;Login3Component </title>
<path fill="none" stroke="black" stroke-dasharray="5,2" d="M259.57,-149.91C259.57,-149.91 259.57,-168.79 259.57,-168.79"/>
<polygon fill="black" stroke="black" points="256.07,-168.79 259.57,-178.79 263.07,-168.79 256.07,-168.79"/>
</g>
<!-- RegisterComponent  -->
<g id="node6" class="node">
<title>RegisterComponent </title>
<polygon fill="#fb8072" stroke="black" points="226.99,-214.8 95.01,-214.8 95.01,-178.8 226.99,-178.8 226.99,-214.8"/>
<text text-anchor="middle" x="161" y="-192.6" font-family="Times,serif" font-size="14.00">RegisterComponent </text>
</g>
<!-- AuthModule&#45;&gt;RegisterComponent  -->
<g id="edge5" class="edge">
<title>AuthModule&#45;&gt;RegisterComponent </title>
<path fill="none" stroke="black" stroke-dasharray="5,2" d="M206.98,-149.91C206.98,-149.91 206.98,-168.79 206.98,-168.79"/>
<polygon fill="black" stroke="black" points="203.48,-168.79 206.98,-178.79 210.48,-168.79 203.48,-168.79"/>
</g>
<!-- AuthRoutingModule -->
<g id="node4" class="node">
<title>AuthRoutingModule</title>
<polygon fill="#8dd3c7" stroke="black" points="448.17,-84.8 445.17,-88.8 424.17,-88.8 421.17,-84.8 315.83,-84.8 315.83,-48.8 448.17,-48.8 448.17,-84.8"/>
<text text-anchor="middle" x="382" y="-62.6" font-family="Times,serif" font-size="14.00">AuthRoutingModule</text>
</g>
<!-- AuthRoutingModule&#45;&gt;AuthModule -->
<g id="edge3" class="edge">
<title>AuthRoutingModule&#45;&gt;AuthModule</title>
<path fill="none" stroke="black" d="M342.65,-84.91C342.65,-104.14 342.65,-131.8 342.65,-131.8 342.65,-131.8 284.81,-131.8 284.81,-131.8"/>
<polygon fill="black" stroke="black" points="284.81,-128.3 274.81,-131.8 284.81,-135.3 284.81,-128.3"/>
</g>
</g>
</svg>
