<?xml version="1.0" encoding="UTF-8" standalone="no"?>
<!DOCTYPE svg PUBLIC "-//W3C//DTD SVG 1.1//EN"
 "http://www.w3.org/Graphics/SVG/1.1/DTD/svg11.dtd">
<!-- Generated by graphviz version 5.0.0 (20220707.1540)
 -->
<!-- Title: dependencies Pages: 1 -->
<svg width="1818pt" height="247pt"
 viewBox="0.00 0.00 1818.00 246.80" xmlns="http://www.w3.org/2000/svg" xmlns:xlink="http://www.w3.org/1999/xlink">
<g id="graph0" class="graph" transform="scale(1 1) rotate(0) translate(4 242.8)">
<title>dependencies</title>
<polygon fill="white" stroke="transparent" points="-4,4 -4,-242.8 1814,-242.8 1814,4 -4,4"/>
<text text-anchor="middle" x="905" y="-8.2" font-family="sans-serif" font-size="14.00">dependencies</text>
<g id="clust1" class="cluster">
<title>cluster_AppModule</title>
<polygon fill="none" stroke="black" stroke-dasharray="1,5" points="8,-32.8 8,-230.8 1802,-230.8 1802,-32.8 8,-32.8"/>
</g>
<g id="clust2" class="cluster">
<title>cluster_AppModule_declarations</title>
<polygon fill="none" stroke="black" points="412,-40.8 412,-92.8 1794,-92.8 1794,-40.8 412,-40.8"/>
</g>
<g id="clust16" class="cluster">
<title>cluster_AppModule_providers</title>
<polygon fill="none" stroke="black" points="274,-40.8 274,-92.8 404,-92.8 404,-40.8 274,-40.8"/>
</g>
<g id="clust13" class="cluster">
<title>cluster_AppModule_imports</title>
<polygon fill="none" stroke="black" points="16,-40.8 16,-92.8 266,-92.8 266,-40.8 16,-40.8"/>
</g>
<g id="clust15" class="cluster">
<title>cluster_AppModule_bootstrap</title>
<polygon fill="none" stroke="black" points="839,-170.8 839,-222.8 963,-222.8 963,-170.8 839,-170.8"/>
</g>
<!-- AboutUsComponent -->
<g id="node1" class="node">
<title>AboutUsComponent</title>
<polygon fill="#ffffb3" stroke="black" points="1785.89,-84.8 1654.11,-84.8 1654.11,-48.8 1785.89,-48.8 1785.89,-84.8"/>
<text text-anchor="middle" x="1720" y="-62.6" font-family="Times,serif" font-size="14.00">AboutUsComponent</text>
</g>
<!-- AppModule -->
<g id="node11" class="node">
<title>AppModule</title>
<polygon fill="#8dd3c7" stroke="black" points="942.66,-149.8 939.66,-153.8 918.66,-153.8 915.66,-149.8 859.34,-149.8 859.34,-113.8 942.66,-113.8 942.66,-149.8"/>
<text text-anchor="middle" x="901" y="-127.6" font-family="Times,serif" font-size="14.00">AppModule</text>
</g>
<!-- AboutUsComponent&#45;&gt;AppModule -->
<g id="edge1" class="edge">
<title>AboutUsComponent&#45;&gt;AppModule</title>
<path fill="none" stroke="black" d="M1720,-84.89C1720,-107.93 1720,-144.8 1720,-144.8 1720,-144.8 952.74,-144.8 952.74,-144.8"/>
<polygon fill="black" stroke="black" points="952.74,-141.3 942.74,-144.8 952.74,-148.3 952.74,-141.3"/>
</g>
<!-- AppComponent -->
<g id="node2" class="node">
<title>AppComponent</title>
<polygon fill="#ffffb3" stroke="black" points="1635.94,-84.8 1530.06,-84.8 1530.06,-48.8 1635.94,-48.8 1635.94,-84.8"/>
<text text-anchor="middle" x="1583" y="-62.6" font-family="Times,serif" font-size="14.00">AppComponent</text>
</g>
<!-- AppComponent&#45;&gt;AppModule -->
<g id="edge2" class="edge">
<title>AppComponent&#45;&gt;AppModule</title>
<path fill="none" stroke="black" d="M1583,-84.84C1583,-106.46 1583,-139.8 1583,-139.8 1583,-139.8 952.89,-139.8 952.89,-139.8"/>
<polygon fill="black" stroke="black" points="952.89,-136.3 942.89,-139.8 952.89,-143.3 952.89,-136.3"/>
</g>
<!-- CardsComponent -->
<g id="node3" class="node">
<title>CardsComponent</title>
<polygon fill="#ffffb3" stroke="black" points="1511.99,-84.8 1398.01,-84.8 1398.01,-48.8 1511.99,-48.8 1511.99,-84.8"/>
<text text-anchor="middle" x="1455" y="-62.6" font-family="Times,serif" font-size="14.00">CardsComponent</text>
</g>
<!-- CardsComponent&#45;&gt;AppModule -->
<g id="edge3" class="edge">
<title>CardsComponent&#45;&gt;AppModule</title>
<path fill="none" stroke="black" d="M1455,-85.02C1455,-105.17 1455,-134.8 1455,-134.8 1455,-134.8 953.09,-134.8 953.09,-134.8"/>
<polygon fill="black" stroke="black" points="953.09,-131.3 943.09,-134.8 953.09,-138.3 953.09,-131.3"/>
</g>
<!-- CartComponent -->
<g id="node4" class="node">
<title>CartComponent</title>
<polygon fill="#ffffb3" stroke="black" points="1379.94,-84.8 1274.06,-84.8 1274.06,-48.8 1379.94,-48.8 1379.94,-84.8"/>
<text text-anchor="middle" x="1327" y="-62.6" font-family="Times,serif" font-size="14.00">CartComponent</text>
</g>
<!-- CartComponent&#45;&gt;AppModule -->
<g id="edge4" class="edge">
<title>CartComponent&#45;&gt;AppModule</title>
<path fill="none" stroke="black" d="M1327,-85.02C1327,-103.63 1327,-129.8 1327,-129.8 1327,-129.8 953.01,-129.8 953.01,-129.8"/>
<polygon fill="black" stroke="black" points="953.01,-126.3 943.01,-129.8 953.01,-133.3 953.01,-126.3"/>
</g>
<!-- ContactUsComponent -->
<g id="node5" class="node">
<title>ContactUsComponent</title>
<polygon fill="#ffffb3" stroke="black" points="1256.44,-84.8 1115.56,-84.8 1115.56,-48.8 1256.44,-48.8 1256.44,-84.8"/>
<text text-anchor="middle" x="1186" y="-62.6" font-family="Times,serif" font-size="14.00">ContactUsComponent</text>
</g>
<!-- ContactUsComponent&#45;&gt;AppModule -->
<g id="edge5" class="edge">
<title>ContactUsComponent&#45;&gt;AppModule</title>
<path fill="none" stroke="black" d="M1186,-84.83C1186,-101.86 1186,-124.8 1186,-124.8 1186,-124.8 952.75,-124.8 952.75,-124.8"/>
<polygon fill="black" stroke="black" points="952.75,-121.3 942.75,-124.8 952.75,-128.3 952.75,-121.3"/>
</g>
<!-- FooterComponent -->
<g id="node6" class="node">
<title>FooterComponent</title>
<polygon fill="#ffffb3" stroke="black" points="1097.88,-84.8 980.12,-84.8 980.12,-48.8 1097.88,-48.8 1097.88,-84.8"/>
<text text-anchor="middle" x="1039" y="-62.6" font-family="Times,serif" font-size="14.00">FooterComponent</text>
</g>
<!-- FooterComponent&#45;&gt;AppModule -->
<g id="edge6" class="edge">
<title>FooterComponent&#45;&gt;AppModule</title>
<path fill="none" stroke="black" d="M1039,-85.04C1039,-100.37 1039,-119.8 1039,-119.8 1039,-119.8 952.78,-119.8 952.78,-119.8"/>
<polygon fill="black" stroke="black" points="952.78,-116.3 942.78,-119.8 952.78,-123.3 952.78,-116.3"/>
</g>
<!-- HeaderComponent -->
<g id="node7" class="node">
<title>HeaderComponent</title>
<polygon fill="#ffffb3" stroke="black" points="961.75,-84.8 840.25,-84.8 840.25,-48.8 961.75,-48.8 961.75,-84.8"/>
<text text-anchor="middle" x="901" y="-62.6" font-family="Times,serif" font-size="14.00">HeaderComponent</text>
</g>
<!-- HeaderComponent&#45;&gt;AppModule -->
<g id="edge7" class="edge">
<title>HeaderComponent&#45;&gt;AppModule</title>
<path fill="none" stroke="black" d="M901,-84.91C901,-84.91 901,-103.79 901,-103.79"/>
<polygon fill="black" stroke="black" points="897.5,-103.79 901,-113.79 904.5,-103.79 897.5,-103.79"/>
</g>
<!-- HomeComponent -->
<g id="node8" class="node">
<title>HomeComponent</title>
<polygon fill="#ffffb3" stroke="black" points="821.55,-84.8 706.45,-84.8 706.45,-48.8 821.55,-48.8 821.55,-84.8"/>
<text text-anchor="middle" x="764" y="-62.6" font-family="Times,serif" font-size="14.00">HomeComponent</text>
</g>
<!-- HomeComponent&#45;&gt;AppModule -->
<g id="edge8" class="edge">
<title>HomeComponent&#45;&gt;AppModule</title>
<path fill="none" stroke="black" d="M764,-85.04C764,-100.37 764,-119.8 764,-119.8 764,-119.8 849.15,-119.8 849.15,-119.8"/>
<polygon fill="black" stroke="black" points="849.15,-123.3 859.15,-119.8 849.15,-116.3 849.15,-123.3"/>
</g>
<!-- NotfoundComponent -->
<g id="node9" class="node">
<title>NotfoundComponent</title>
<polygon fill="#ffffb3" stroke="black" points="688.49,-84.8 553.51,-84.8 553.51,-48.8 688.49,-48.8 688.49,-84.8"/>
<text text-anchor="middle" x="621" y="-62.6" font-family="Times,serif" font-size="14.00">NotfoundComponent</text>
</g>
<!-- NotfoundComponent&#45;&gt;AppModule -->
<g id="edge9" class="edge">
<title>NotfoundComponent&#45;&gt;AppModule</title>
<path fill="none" stroke="black" d="M621,-84.83C621,-101.86 621,-124.8 621,-124.8 621,-124.8 849.08,-124.8 849.08,-124.8"/>
<polygon fill="black" stroke="black" points="849.08,-128.3 859.08,-124.8 849.08,-121.3 849.08,-128.3"/>
</g>
<!-- dviewComponent -->
<g id="node10" class="node">
<title>dviewComponent</title>
<polygon fill="#ffffb3" stroke="black" points="535.55,-84.8 420.45,-84.8 420.45,-48.8 535.55,-48.8 535.55,-84.8"/>
<text text-anchor="middle" x="478" y="-62.6" font-family="Times,serif" font-size="14.00">dviewComponent</text>
</g>
<!-- dviewComponent&#45;&gt;AppModule -->
<g id="edge10" class="edge">
<title>dviewComponent&#45;&gt;AppModule</title>
<path fill="none" stroke="black" d="M478,-85.02C478,-103.63 478,-129.8 478,-129.8 478,-129.8 849.28,-129.8 849.28,-129.8"/>
<polygon fill="black" stroke="black" points="849.28,-133.3 859.28,-129.8 849.28,-126.3 849.28,-133.3"/>
</g>
<!-- AppComponent  -->
<g id="node14" class="node">
<title>AppComponent </title>
<polygon fill="#80b1d3" stroke="black" points="955.44,-214.8 846.56,-214.8 846.56,-178.8 955.44,-178.8 955.44,-214.8"/>
<text text-anchor="middle" x="901" y="-192.6" font-family="Times,serif" font-size="14.00">AppComponent </text>
</g>
<!-- AppModule&#45;&gt;AppComponent  -->
<g id="edge13" class="edge">
<title>AppModule&#45;&gt;AppComponent </title>
<path fill="none" stroke="black" stroke-dasharray="1,5" d="M901,-149.91C901,-149.91 901,-168.79 901,-168.79"/>
<polygon fill="black" stroke="black" points="897.5,-168.79 901,-178.79 904.5,-168.79 897.5,-168.79"/>
</g>
<!-- AppRoutingModule -->
<g id="node12" class="node">
<title>AppRoutingModule</title>
<polygon fill="#8dd3c7" stroke="black" points="258.28,-84.8 255.28,-88.8 234.28,-88.8 231.28,-84.8 129.72,-84.8 129.72,-48.8 258.28,-48.8 258.28,-84.8"/>
<text text-anchor="middle" x="194" y="-62.6" font-family="Times,serif" font-size="14.00">AppRoutingModule</text>
</g>
<!-- AppRoutingModule&#45;&gt;AppModule -->
<g id="edge11" class="edge">
<title>AppRoutingModule&#45;&gt;AppModule</title>
<path fill="none" stroke="black" d="M194,-84.84C194,-106.46 194,-139.8 194,-139.8 194,-139.8 849.15,-139.8 849.15,-139.8"/>
<polygon fill="black" stroke="black" points="849.15,-143.3 859.15,-139.8 849.15,-136.3 849.15,-143.3"/>
</g>
<!-- AuthModule -->
<g id="node13" class="node">
<title>AuthModule</title>
<polygon fill="#8dd3c7" stroke="black" points="111.55,-84.8 108.55,-88.8 87.55,-88.8 84.55,-84.8 24.45,-84.8 24.45,-48.8 111.55,-48.8 111.55,-84.8"/>
<text text-anchor="middle" x="68" y="-62.6" font-family="Times,serif" font-size="14.00">AuthModule</text>
</g>
<!-- AuthModule&#45;&gt;AppModule -->
<g id="edge12" class="edge">
<title>AuthModule&#45;&gt;AppModule</title>
<path fill="none" stroke="black" d="M68,-84.89C68,-107.93 68,-144.8 68,-144.8 68,-144.8 849.12,-144.8 849.12,-144.8"/>
<polygon fill="black" stroke="black" points="849.12,-148.3 859.12,-144.8 849.12,-141.3 849.12,-148.3"/>
</g>
<!-- CartService -->
<g id="node15" class="node">
<title>CartService</title>
<ellipse fill="#fdb462" stroke="black" cx="339" cy="-66.8" rx="56.74" ry="18"/>
<text text-anchor="middle" x="339" y="-62.6" font-family="Times,serif" font-size="14.00">CartService</text>
</g>
<!-- CartService&#45;&gt;AppModule -->
<g id="edge14" class="edge">
<title>CartService&#45;&gt;AppModule</title>
<path fill="none" stroke="black" d="M339,-85.02C339,-105.17 339,-134.8 339,-134.8 339,-134.8 849.22,-134.8 849.22,-134.8"/>
<polygon fill="black" stroke="black" points="849.22,-138.3 859.22,-134.8 849.22,-131.3 849.22,-138.3"/>
</g>
</g>
</svg>
